<?xml version="1.0" standalone="no"?>
<!DOCTYPE svg PUBLIC "-//W3C//DTD SVG 20010904//EN"
 "http://www.w3.org/TR/2001/REC-SVG-20010904/DTD/svg10.dtd">
<svg version="1.0" xmlns="http://www.w3.org/2000/svg"
 width="618.000000pt" height="618.000000pt" viewBox="0 0 618.000000 618.000000"
 preserveAspectRatio="xMidYMid meet">
<metadata>
Created by potrace 1.16, written by Peter Selinger 2001-2019
</metadata>
<g transform="translate(0.000000,618.000000) scale(0.100000,-0.100000)"
fill="#000000" stroke="none">
<path d="M2801 5264 c-227 -29 -511 -121 -693 -224 -49 -28 -96 -50 -106 -50
-47 0 -186 -45 -279 -90 -254 -124 -513 -383 -734 -735 -140 -222 -355 -682
-400 -855 -25 -96 -27 -263 -4 -375 55 -267 218 -585 474 -925 118 -156 175
-213 235 -233 138 -47 272 12 338 148 12 25 25 45 28 45 3 0 29 -33 57 -72
114 -164 254 -304 396 -395 61 -40 83 -51 167 -86 69 -28 144 12 144 77 0 47
-14 60 -111 106 -119 55 -194 112 -307 231 -86 90 -256 323 -256 351 0 5 11
31 25 58 49 96 50 128 11 301 -107 475 -111 861 -11 1126 31 82 31 103 0 137
-18 19 -34 26 -63 26 -47 0 -70 -23 -100 -100 -58 -151 -82 -306 -82 -533 0
-238 19 -398 82 -685 l31 -142 -89 -191 c-49 -104 -99 -201 -111 -215 -36 -40
-82 -33 -129 19 -113 122 -301 394 -392 567 -137 256 -198 488 -172 652 22
145 238 625 388 863 200 316 416 541 632 658 82 45 207 87 257 87 22 0 57 10
83 25 327 183 559 251 890 262 374 12 716 -85 1069 -302 85 -52 87 -53 181
-57 325 -17 646 -319 910 -853 87 -176 149 -325 213 -508 29 -85 32 -102 31
-217 0 -105 -4 -141 -27 -220 -67 -241 -210 -507 -428 -797 -107 -142 -138
-173 -176 -173 -43 0 -64 20 -98 93 -18 40 -61 131 -95 202 l-62 130 11 55
c83 389 92 455 98 710 4 171 2 239 -11 330 -22 146 -79 323 -114 350 -49 39
-123 15 -138 -44 -3 -14 6 -59 25 -112 50 -147 65 -255 65 -469 0 -207 -22
-394 -69 -600 -53 -226 -52 -232 5 -358 l31 -68 -55 -92 c-149 -254 -316 -426
-493 -509 -45 -21 -89 -48 -98 -61 -49 -70 27 -154 113 -126 63 20 154 69 223
120 115 85 299 293 372 421 12 21 24 38 27 38 3 0 16 -21 29 -46 82 -155 290
-191 413 -71 24 23 94 110 156 192 363 487 532 939 468 1254 -28 140 -146 440
-263 674 -126 253 -245 427 -403 591 -206 214 -411 325 -634 343 -59 5 -82 13
-136 46 -115 71 -338 174 -463 215 -285 93 -590 123 -876 86z"/>
<path d="M2310 3838 c-103 -53 -129 -178 -54 -267 37 -45 82 -56 146 -37 29 9
71 26 93 39 l40 23 -1 75 c-2 98 -23 145 -78 170 -54 25 -92 24 -146 -3z"/>
<path d="M3881 3842 c-48 -24 -69 -57 -82 -126 -17 -92 -7 -122 49 -150 110
-56 177 -54 226 5 75 89 49 214 -54 267 -53 27 -93 28 -139 4z"/>
<path d="M2763 3069 c-23 -11 -51 -35 -62 -52 -25 -42 -121 -297 -121 -324 0
-43 37 -69 171 -123 126 -50 135 -52 179 -42 30 7 105 8 228 2 100 -5 195 -5
210 -1 15 5 77 34 136 66 152 81 153 86 85 248 -75 178 -84 193 -132 222 l-44
25 -304 0 c-288 0 -306 -1 -346 -21z"/>
<path d="M2139 2561 c-28 -28 -29 -33 -29 -118 0 -166 50 -288 169 -415 40
-43 110 -103 156 -133 l82 -55 6 -172 c4 -95 14 -209 21 -252 8 -44 14 -82 13
-85 0 -3 11 -43 27 -89 55 -163 147 -262 280 -301 229 -67 480 -47 588 48 118
104 187 336 196 649 l4 183 42 21 c185 94 338 261 388 421 29 94 32 249 5 290
-30 46 -96 48 -137 5 -17 -18 -20 -35 -20 -108 0 -140 -41 -232 -148 -332 -63
-59 -163 -125 -211 -138 -91 -25 -135 -10 -269 95 l-97 76 -5 129 c-5 119 -7
130 -29 154 -33 35 -92 36 -126 1 -24 -23 -25 -30 -25 -149 l0 -126 -97 -77
c-54 -43 -113 -85 -132 -95 -77 -39 -180 -11 -307 85 -141 107 -208 242 -202
405 3 59 1 66 -25 88 -39 33 -81 31 -118 -5z"/>
</g>
</svg>
